G04 MADE WITH FRITZING*
G04 WWW.FRITZING.ORG*
G04 DOUBLE SIDED*
G04 HOLES PLATED*
G04 CONTOUR ON CENTER OF CONTOUR VECTOR*
%ASAXBY*%
%FSLAX23Y23*%
%MOIN*%
%OFA0B0*%
%SFA1.0B1.0*%
%ADD10C,0.062992*%
%ADD11C,0.075000*%
%ADD12C,0.078000*%
%ADD13R,0.062992X0.062992*%
%ADD14R,0.075000X0.075000*%
%ADD15R,0.078000X0.078000*%
%ADD16C,0.024000*%
%LNCOPPER1*%
G90*
G70*
G54D10*
X422Y1924D03*
X422Y2022D03*
X1122Y2022D03*
X1122Y2121D03*
G54D11*
X422Y1722D03*
X422Y1322D03*
X622Y1922D03*
X622Y1522D03*
X822Y1922D03*
X822Y1522D03*
X1122Y1822D03*
X1122Y1422D03*
X622Y1222D03*
X722Y1222D03*
X922Y1222D03*
X1022Y1222D03*
G54D12*
X122Y2022D03*
X122Y1922D03*
G54D11*
X222Y1722D03*
X222Y1622D03*
X222Y1522D03*
X1322Y1522D03*
X1322Y1622D03*
X1322Y1722D03*
X622Y1422D03*
X922Y1422D03*
G54D13*
X422Y1924D03*
X1122Y2022D03*
G54D14*
X622Y1222D03*
X922Y1222D03*
G54D15*
X122Y2022D03*
G54D16*
X395Y2022D02*
X152Y2022D01*
D02*
X597Y1935D02*
X446Y2010D01*
D02*
X794Y1922D02*
X651Y1922D01*
D02*
X1100Y2106D02*
X846Y1938D01*
D02*
X422Y1751D02*
X422Y1897D01*
D02*
X1122Y1851D02*
X1122Y1995D01*
D02*
X251Y1722D02*
X322Y1722D01*
D02*
X322Y1722D02*
X322Y1322D01*
D02*
X322Y1322D02*
X394Y1322D01*
D02*
X1222Y1422D02*
X1151Y1422D01*
D02*
X1222Y1722D02*
X1222Y1422D01*
D02*
X1294Y1722D02*
X1222Y1722D01*
D02*
X222Y1422D02*
X222Y1494D01*
D02*
X122Y1422D02*
X222Y1422D01*
D02*
X122Y1892D02*
X122Y1422D01*
D02*
X1322Y1022D02*
X1322Y1494D01*
D02*
X122Y1022D02*
X1322Y1022D01*
D02*
X122Y1422D02*
X122Y1022D01*
D02*
X422Y1294D02*
X422Y1222D01*
D02*
X422Y1222D02*
X594Y1222D01*
D02*
X1122Y1222D02*
X1051Y1222D01*
D02*
X1122Y1394D02*
X1122Y1222D01*
D02*
X622Y1451D02*
X622Y1494D01*
D02*
X922Y1251D02*
X922Y1394D01*
D02*
X822Y1494D02*
X822Y1222D01*
D02*
X822Y1222D02*
X751Y1222D01*
G04 End of Copper1*
M02*