; NON-PLATED HOLES START AT T1
; THROUGH (PLATED) HOLES START AT T100
M48
INCH
T100C0.031497
T101C0.035000
T102C0.038000
%
T100
X004222Y020222
X011222Y021206
X011222Y020222
X004222Y019237
T101
X011222Y014222
X006222Y019222
X006222Y014222
X007222Y012222
X013222Y016222
X002222Y015222
X009222Y014222
X013222Y015222
X009222Y012222
X011222Y018222
X004222Y013222
X013222Y017222
X006222Y012222
X008222Y015222
X010222Y012222
X002222Y016222
X006222Y015222
X004222Y017222
X002222Y017222
X008222Y019222
T102
X001222Y020222
X001222Y019222
T00
M30
